<svg width="24" height="24" viewBox="0 0 24 24" fill="none" xmlns="http://www.w3.org/2000/svg">
<g clip-path="url(#clip0_190_137)">
<path d="M11.9132 -0.0285725C11.8742 -0.0215231 11.8357 -0.0119649 11.7978 4.29214e-05C11.5894 0.0467522 11.4037 0.16428 11.2722 0.332599C11.1408 0.500918 11.0718 0.709612 11.0769 0.92312V1.8462H2.76923C2.03479 1.8462 1.33042 2.13795 0.811089 2.65729C0.291757 3.17662 0 3.88098 0 4.61543L0 16.6154C0 18.144 1.24062 19.3847 2.76923 19.3847H11.0769V19.7308L6.05723 22.2407C5.83543 22.3478 5.66526 22.5386 5.58416 22.7712C5.50305 23.0037 5.51766 23.259 5.62477 23.4808C5.73188 23.7026 5.92271 23.8728 6.15528 23.9539C6.38785 24.035 6.64312 24.0204 6.86492 23.9133L11.0769 21.8077V22.1539C11.0769 22.3987 11.1742 22.6335 11.3473 22.8066C11.5204 22.9797 11.7552 23.077 12 23.077C12.2448 23.077 12.4796 22.9797 12.6527 22.8066C12.8258 22.6335 12.9231 22.3987 12.9231 22.1539V21.8077L17.1351 23.9133C17.3569 24.0204 17.6121 24.035 17.8447 23.9539C18.0773 23.8728 18.2681 23.7026 18.3752 23.4808C18.4823 23.259 18.4969 23.0037 18.4158 22.7712C18.3347 22.5386 18.1646 22.3478 17.9428 22.2407L12.9231 19.7308V19.3847H21.2308C22.7594 19.3847 24 18.144 24 16.6154V4.61543C24 3.88098 23.7082 3.17662 23.1889 2.65729C22.6696 2.13795 21.9652 1.8462 21.2308 1.8462H12.9231V0.92312C12.9277 0.791856 12.9043 0.661109 12.8544 0.539615C12.8045 0.41812 12.7293 0.308675 12.6337 0.218592C12.5381 0.12851 12.4244 0.0598634 12.3001 0.0172402C12.1759 -0.025383 12.044 -0.0410017 11.9132 -0.0285725V-0.0285725ZM1.84615 4.61543H22.1538V16.6154H1.84615V4.61543ZM19.2692 5.5385C19.0625 5.56073 18.8693 5.65213 18.7209 5.79789L15.6923 8.82743L13.5868 6.72004C13.4859 6.61658 13.3622 6.53822 13.2256 6.49129C13.0889 6.44435 12.9432 6.43015 12.8001 6.44981C12.6569 6.46948 12.5204 6.52246 12.4015 6.60451C12.2826 6.68656 12.1846 6.79537 12.1154 6.9222L9.37477 11.7111L8.24954 8.88373C8.1949 8.73775 8.10418 8.60798 7.98584 8.50652C7.8675 8.40507 7.72539 8.33523 7.57278 8.30353C7.42016 8.27182 7.262 8.27929 7.11304 8.32522C6.96408 8.37115 6.82919 8.45405 6.72092 8.5662L3.95169 11.3354C3.77543 11.5116 3.67635 11.7505 3.67626 11.9997C3.67618 12.2489 3.77509 12.4879 3.95123 12.6642C4.12738 12.8405 4.36633 12.9395 4.61552 12.9396C4.86471 12.9397 5.10373 12.8408 5.28 12.6647L7.03938 10.9053L8.36677 14.1933C8.42942 14.3582 8.538 14.5017 8.67967 14.6068C8.82134 14.7119 8.99016 14.7742 9.16614 14.7863C9.34213 14.7985 9.5179 14.7599 9.67266 14.6753C9.82742 14.5906 9.95469 14.4634 10.0394 14.3087L13.1262 8.9142L15.0295 10.8185C15.1156 10.9076 15.2187 10.9784 15.3328 11.0267C15.4468 11.0751 15.5694 11.1 15.6932 11.1C15.8171 11.1 15.9397 11.0751 16.0537 11.0267C16.1677 10.9784 16.2708 10.9076 16.3569 10.8185L20.0492 7.1262C20.195 6.9912 20.2934 6.81276 20.3297 6.61739C20.366 6.42202 20.3383 6.22016 20.2506 6.04181C20.163 5.86346 20.0202 5.71814 19.8434 5.62746C19.6666 5.53679 19.4652 5.50559 19.2692 5.5385Z" fill="#7E8CAC"/>
</g>
<defs>
<clipPath id="clip0_190_137">
<rect width="24" height="24" fill="white"/>
</clipPath>
</defs>
</svg>
